<svg width="30" height="31" viewBox="0 0 30 31" fill="none" xmlns="http://www.w3.org/2000/svg">
<path d="M12.9545 4.25C11.134 4.25 9.35443 4.78983 7.84075 5.80124C6.32708 6.81264 5.14732 8.25018 4.45065 9.93209C3.75399 11.614 3.57171 13.4647 3.92687 15.2502C4.28202 17.0357 5.15867 18.6758 6.44594 19.9631C7.73321 21.2503 9.37329 22.127 11.1588 22.4821C12.9443 22.8373 14.795 22.655 16.4769 21.9583C18.1588 21.2617 19.5964 20.0819 20.6078 18.5682C21.6192 17.0546 22.159 15.275 22.159 13.4545C22.1588 11.0134 21.189 8.67225 19.4629 6.94611C17.7367 5.21996 15.3956 4.25016 12.9545 4.25Z" stroke="white" stroke-width="1.7726" stroke-miterlimit="10"/>
<path d="M19.8213 20.3218L26.2496 26.7501" stroke="white" stroke-width="1.7726" stroke-miterlimit="10" stroke-linecap="round"/>
</svg>
