<svg width="30" height="30" viewBox="0 0 30 30" fill="none" xmlns="http://www.w3.org/2000/svg">
<path d="M12.9544 3.75C11.134 3.75 9.35436 4.28983 7.84069 5.30124C6.32702 6.31264 5.14726 7.75018 4.45059 9.43209C3.75393 11.114 3.57165 12.9647 3.9268 14.7502C4.28196 16.5357 5.15861 18.1758 6.44588 19.4631C7.73315 20.7503 9.37323 21.627 11.1587 21.9821C12.9442 22.3373 14.7949 22.155 16.4768 21.4583C18.1587 20.7617 19.5963 19.5819 20.6077 18.0682C21.6191 16.5546 22.1589 14.775 22.1589 12.9545C22.1588 10.5134 21.189 8.17225 19.4628 6.44611C17.7367 4.71996 15.3956 3.75016 12.9544 3.75Z" stroke="white" stroke-width="1.7726" stroke-miterlimit="10"/>
<path d="M19.8215 19.8218L26.2499 26.2501" stroke="white" stroke-width="1.7726" stroke-miterlimit="10" stroke-linecap="round"/>
</svg>
